<?xml version="1.0" encoding="UTF-8"?>
<svg xmlns="http://www.w3.org/2000/svg" version="1.1" viewBox="0 0 673 213">
  <defs>
    <style>
      .cls-1 {
        fill: #d84226;
      }

      .cls-2 {
        fill: #20b24b;
      }

      .cls-3 {
        fill: #3e7abe;
      }

      .cls-4 {
        fill: #231f20;
      }

      .cls-5 {
        fill: #fed500;
      }

      .cls-6 {
        fill: #f05030;
      }

      .cls-7 {
        fill: #169a48;
      }
    </style>
  </defs>
  <!-- Generator: Adobe Illustrator 28.7.9, SVG Export Plug-In . SVG Version: 1.2.0 Build 218)  -->
  <g>
    <g id="Layer_1">
      <g>
        <path class="cls-4" d="M239.6289,88.7847h-12.7349l-2.25,6.3896h-6.7051l11.7002-31.4102h7.2446l11.6553,31.4102h-6.7051l-2.2051-6.3896h0ZM237.9189,83.9692l-4.6802-13.4102-4.6797,13.4102h9.3599Z"/>
        <path class="cls-4" d="M267.1006,71.4146c1.4863.9902,2.5586,2.3252,3.2188,4.0049v-13.5449h6.2988v33.2998h-6.2988v-5.2197c-.6602,1.6807-1.7324,3.0225-3.2188,4.0273-1.4844,1.0049-3.2773,1.5078-5.377,1.5078s-3.9902-.5098-5.6699-1.5303c-1.6807-1.0195-2.9927-2.498-3.9375-4.4326-.9453-1.9346-1.4175-4.208-1.4175-6.8174s.4722-4.8828,1.4175-6.8174c.9448-1.9355,2.2568-3.4121,3.9375-4.4326,1.6797-1.0195,3.5698-1.5303,5.6699-1.5303s3.8926.4951,5.377,1.4854ZM258.9336,77.3989c-1.2002,1.291-1.7998,3.0605-1.7998,5.3105s.5996,4.0127,1.7998,5.2871c1.1997,1.2754,2.79,1.9131,4.77,1.9131,1.9194,0,3.5024-.6533,4.7466-1.958,1.2461-1.3047,1.8691-3.0518,1.8691-5.2422,0-2.2197-.623-3.9824-1.8691-5.2881-1.2441-1.3047-2.8271-1.957-4.7466-1.957-1.98,0-3.5703.6455-4.77,1.9346Z"/>
        <path class="cls-4" d="M297.5205,71.4146c1.4854.9902,2.5576,2.3252,3.2178,4.0049v-13.5449h6.2998v33.2998h-6.2998v-5.2197c-.6602,1.6807-1.7324,3.0225-3.2178,4.0273s-3.2783,1.5078-5.3779,1.5078-3.9902-.5098-5.6699-1.5303c-1.6797-1.0195-2.9922-2.498-3.9375-4.4326-.9443-1.9346-1.417-4.208-1.417-6.8174s.4727-4.8828,1.417-6.8174c.9453-1.9355,2.2578-3.4121,3.9375-4.4326,1.6797-1.0195,3.5703-1.5303,5.6699-1.5303s3.8926.4951,5.3779,1.4854ZM289.3535,77.3989c-1.2012,1.291-1.8008,3.0605-1.8008,5.3105s.5996,4.0127,1.8008,5.2871c1.1992,1.2754,2.7891,1.9131,4.7695,1.9131,1.9199,0,3.502-.6533,4.7471-1.958s1.8682-3.0518,1.8682-5.2422c0-2.2197-.623-3.9824-1.8682-5.2881-1.2451-1.3047-2.8271-1.957-4.7471-1.957-1.9805,0-3.5703.6455-4.7695,1.9346Z"/>
        <path class="cls-4" d="M337.7725,71.4146c1.5.9902,2.5654,2.3252,3.1953,4.0049v-5.1748h6.2998v24.9297h-6.2998v-5.2197c-.6299,1.6807-1.6953,3.0225-3.1953,4.0273s-3.3008,1.5078-5.4004,1.5078-3.9902-.5098-5.6699-1.5303c-1.6797-1.0195-2.9922-2.498-3.9375-4.4326-.9443-1.9346-1.417-4.208-1.417-6.8174s.4727-4.8828,1.417-6.8174c.9453-1.9355,2.2578-3.4121,3.9375-4.4326,1.6797-1.0195,3.5703-1.5303,5.6699-1.5303s3.9004.4951,5.4004,1.4854ZM329.583,77.3989c-1.2012,1.291-1.8008,3.0605-1.8008,5.3105s.5996,4.0127,1.8008,5.2871c1.1992,1.2754,2.7891,1.9131,4.7695,1.9131,1.9199,0,3.502-.6533,4.7471-1.958s1.8682-3.0518,1.8682-5.2422c0-2.2197-.623-3.9824-1.8682-5.2881-1.2451-1.3047-2.8271-1.957-4.7471-1.957-1.9805,0-3.5703.6455-4.7695,1.9346Z"/>
        <path class="cls-4" d="M368.9121,72.2241c1.8301,1.5303,2.9707,3.5703,3.4199,6.1201h-5.9395c-.2402-1.1992-.7803-2.1602-1.6201-2.8799s-1.9346-1.0801-3.2852-1.0801c-1.0801,0-1.9199.2549-2.5195.7646-.6006.5107-.9004,1.2002-.9004,2.0703,0,.6904.2402,1.2451.7197,1.665.4795.4209,1.0801.75,1.8008.9902.7197.2402,1.7549.5254,3.1045.8545,1.8896.4209,3.4268.8633,4.6123,1.3281,1.1846.4648,2.2051,1.2002,3.0605,2.2051.8545,1.0049,1.2822,2.3623,1.2822,4.0723,0,2.1299-.832,3.8555-2.4971,5.1748-1.665,1.3203-3.9082,1.9805-6.7275,1.9805-3.2402,0-5.8359-.7275-7.7852-2.1826-1.9512-1.4551-3.1357-3.5332-3.5557-6.2324h6.0752c.1504,1.2305.6904,2.1973,1.6201,2.9023s2.1445,1.0576,3.6455,1.0576c1.0801,0,1.9043-.2627,2.4746-.7881.5693-.5244.8555-1.207.8555-2.0469,0-.7207-.248-1.3057-.7432-1.7559-.4951-.4492-1.1104-.7939-1.8447-1.0342-.7354-.2402-1.7773-.5244-3.1279-.8555-1.8604-.4199-3.3672-.8467-4.5225-1.2822-1.1553-.4346-2.1445-1.1318-2.9697-2.0928-.8252-.96-1.2373-2.2793-1.2373-3.96,0-2.1602.8242-3.915,2.4746-5.2646,1.6494-1.3506,3.9297-2.0254,6.8398-2.0254,3.0303,0,5.46.7646,7.29,2.2949l.0002.0003Z"/>
        <path class="cls-4" d="M402.3457,71.4146c1.5.9902,2.5654,2.3252,3.1953,4.0049v-5.1748h6.2998v24.9297h-6.2998v-5.2197c-.6299,1.6807-1.6953,3.0225-3.1953,4.0273s-3.3008,1.5078-5.4004,1.5078-3.9902-.5098-5.6699-1.5303c-1.6797-1.0195-2.9922-2.498-3.9375-4.4326-.9443-1.9346-1.417-4.208-1.417-6.8174s.4727-4.8828,1.417-6.8174c.9453-1.9355,2.2578-3.4121,3.9375-4.4326,1.6797-1.0195,3.5703-1.5303,5.6699-1.5303s3.9004.4951,5.4004,1.4854ZM394.1562,77.3989c-1.2012,1.291-1.8008,3.0605-1.8008,5.3105s.5996,4.0127,1.8008,5.2871c1.1992,1.2754,2.7891,1.9131,4.7695,1.9131,1.9199,0,3.502-.6533,4.7471-1.958s1.8682-3.0518,1.8682-5.2422c0-2.2197-.623-3.9824-1.8682-5.2881-1.2451-1.3047-2.8271-1.957-4.7471-1.957-1.9805,0-3.5703.6455-4.7695,1.9346Z"/>
        <path class="cls-4" d="M447.9756,71.4595c1.6797,1.0205,2.9922,2.4971,3.9375,4.4326.9443,1.9346,1.417,4.207,1.417,6.8174s-.4727,4.8828-1.417,6.8174c-.9453,1.9346-2.2578,3.4131-3.9375,4.4326-1.6807,1.0205-3.5703,1.5303-5.6699,1.5303s-3.8926-.5029-5.3779-1.5078-2.542-2.3467-3.1729-4.0273v17.1001h-6.3447v-36.8101h6.3447v5.1748c.6309-1.6797,1.6875-3.0146,3.1729-4.0049s3.2773-1.4854,5.3779-1.4854,3.9893.5107,5.6699,1.5303ZM435.5781,77.4214c-1.2451,1.3057-1.8682,3.0684-1.8682,5.2881,0,2.1904.623,3.9375,1.8682,5.2422,1.2441,1.3047,2.8271,1.958,4.7471,1.958,1.9805,0,3.5703-.6377,4.7705-1.9131,1.1992-1.2744,1.7998-3.0371,1.7998-5.2871s-.6006-4.0195-1.7998-5.3105c-1.2002-1.2891-2.79-1.9346-4.7705-1.9346-1.9199,0-3.5029.6523-4.7471,1.957Z"/>
        <path class="cls-4" d="M467.8652,71.2563c1.5303-.9141,3.2402-1.3721,5.1299-1.3721v6.7949h-1.8447c-4.6504,0-6.9756,2.1602-6.9756,6.4805v12.0146h-6.3447v-24.9297h6.3447v4.7695c.9297-1.5898,2.1602-2.8418,3.6904-3.7578h0Z"/>
        <path class="cls-4" d="M499.7246,83.9243h-18.2695c.0898,2.2207.6895,3.8555,1.7998,4.9053,1.1094,1.0498,2.4902,1.5752,4.1396,1.5752,1.4697,0,2.6924-.3604,3.668-1.0801.9746-.7207,1.5977-1.6953,1.8672-2.9258h6.7051c-.3301,1.7402-1.0352,3.3008-2.1152,4.6807-1.0791,1.3799-2.4678,2.46-4.1621,3.2393-1.6953.7812-3.5771,1.1709-5.6475,1.1709-2.4297,0-4.5898-.5176-6.4795-1.5527-1.8906-1.0352-3.3604-2.5127-4.4102-4.4326-1.0508-1.9199-1.5752-4.1855-1.5752-6.7949s.5244-4.8828,1.5752-6.8174c1.0498-1.9355,2.5195-3.4121,4.4102-4.4326,1.8896-1.0195,4.0498-1.5303,6.4795-1.5303,2.46,0,4.6123.5107,6.458,1.5303,1.8447,1.0205,3.2695,2.4229,4.2744,4.207,1.0049,1.7852,1.5078,3.8184,1.5078,6.0977,0,.6299-.0752,1.3506-.2256,2.1602v-.0002ZM491.9629,76.4995c-1.1553-1.0498-2.5732-1.5752-4.2529-1.5752-1.71,0-3.1504.5254-4.3203,1.5752s-1.8154,2.5947-1.9346,4.6348h12.1045c.0908-2.04-.4424-3.585-1.5967-4.6348h0Z"/>
        <path class="cls-4" d="M512.8643,66.7339c-.75.6611-1.125,1.8154-1.125,3.4658v.0449h5.04v5.3545h-5.04v19.5752h-6.3447v-19.5752h-3.1953v-5.3545h3.1953v-.585c0-2.9707.8467-5.2578,2.542-6.8633,1.6953-1.6045,4.208-2.4072,7.5381-2.4072.5693,0,1.0049.0156,1.3047.0449v5.4902c-1.8604-.1191-3.165.1504-3.915.8096h0Z"/>
        <path class="cls-4" d="M543.7783,83.9243h-18.2695c.0898,2.2207.6895,3.8555,1.7998,4.9053,1.1094,1.0498,2.4902,1.5752,4.1396,1.5752,1.4697,0,2.6924-.3604,3.668-1.0801.9746-.7207,1.5977-1.6953,1.8672-2.9258h6.7051c-.3301,1.7402-1.0352,3.3008-2.1152,4.6807-1.0791,1.3799-2.4678,2.46-4.1621,3.2393-1.6953.7812-3.5771,1.1709-5.6475,1.1709-2.4297,0-4.5898-.5176-6.4795-1.5527-1.8906-1.0352-3.3604-2.5127-4.4102-4.4326-1.0508-1.9199-1.5752-4.1855-1.5752-6.7949s.5244-4.8828,1.5752-6.8174c1.0498-1.9355,2.5195-3.4121,4.4102-4.4326,1.8896-1.0195,4.0498-1.5303,6.4795-1.5303,2.46,0,4.6123.5107,6.458,1.5303,1.8447,1.0205,3.2695,2.4229,4.2744,4.207,1.0049,1.7852,1.5078,3.8184,1.5078,6.0977,0,.6299-.0752,1.3506-.2256,2.1602v-.0002ZM536.0166,76.4995c-1.1553-1.0498-2.5732-1.5752-4.2529-1.5752-1.71,0-3.1504.5254-4.3203,1.5752s-1.8154,2.5947-1.9346,4.6348h12.1045c.0908-2.04-.4424-3.585-1.5967-4.6348Z"/>
        <path class="cls-4" d="M558.5381,71.2563c1.5303-.9141,3.2402-1.3721,5.1299-1.3721v6.7949h-1.8447c-4.6504,0-6.9756,2.1602-6.9756,6.4805v12.0146h-6.3447v-24.9297h6.3447v4.7695c.9297-1.5898,2.1602-2.8418,3.6904-3.7578h0Z"/>
        <path class="cls-4" d="M577.2129,71.2563c1.5303-.9141,3.2402-1.3721,5.1299-1.3721v6.7949h-1.8447c-4.6504,0-6.9756,2.1602-6.9756,6.4805v12.0146h-6.3447v-24.9297h6.3447v4.7695c.9297-1.5898,2.1602-2.8418,3.6904-3.7578h0Z"/>
        <path class="cls-4" d="M609.0723,83.9243h-18.2695c.0898,2.2207.6895,3.8555,1.7998,4.9053,1.1094,1.0498,2.4902,1.5752,4.1396,1.5752,1.4697,0,2.6924-.3604,3.668-1.0801.9746-.7207,1.5977-1.6953,1.8672-2.9258h6.7051c-.3301,1.7402-1.0352,3.3008-2.1152,4.6807-1.0791,1.3799-2.4678,2.46-4.1621,3.2393-1.6953.7812-3.5771,1.1709-5.6475,1.1709-2.4297,0-4.5898-.5176-6.4795-1.5527-1.8906-1.0352-3.3604-2.5127-4.4102-4.4326-1.0508-1.9199-1.5752-4.1855-1.5752-6.7949s.5244-4.8828,1.5752-6.8174c1.0498-1.9355,2.5195-3.4121,4.4102-4.4326,1.8896-1.0195,4.0498-1.5303,6.4795-1.5303,2.46,0,4.6123.5107,6.458,1.5303,1.8447,1.0205,3.2695,2.4229,4.2744,4.207,1.0049,1.7852,1.5078,3.8184,1.5078,6.0977,0,.6299-.0752,1.3506-.2256,2.1602v-.0002ZM601.3105,76.4995c-1.1553-1.0498-2.5732-1.5752-4.2529-1.5752-1.71,0-3.1504.5254-4.3203,1.5752s-1.8154,2.5947-1.9346,4.6348h12.1045c.0908-2.04-.4424-3.585-1.5967-4.6348Z"/>
        <path class="cls-4" d="M628.9395,71.4146c1.4854.9902,2.5576,2.3252,3.2178,4.0049v-13.5449h6.2998v33.2998h-6.2998v-5.2197c-.6602,1.6807-1.7324,3.0225-3.2178,4.0273s-3.2783,1.5078-5.3779,1.5078-3.9902-.5098-5.6699-1.5303c-1.6797-1.0195-2.9922-2.498-3.9375-4.4326-.9443-1.9346-1.417-4.208-1.417-6.8174s.4727-4.8828,1.417-6.8174c.9453-1.9355,2.2578-3.4121,3.9375-4.4326,1.6797-1.0195,3.5703-1.5303,5.6699-1.5303s3.8926.4951,5.3779,1.4854ZM620.7725,77.3989c-1.2012,1.291-1.8008,3.0605-1.8008,5.3105s.5996,4.0127,1.8008,5.2871c1.1992,1.2754,2.7891,1.9131,4.7695,1.9131,1.9199,0,3.502-.6533,4.7471-1.958s1.8682-3.0518,1.8682-5.2422c0-2.2197-.623-3.9824-1.8682-5.2881-1.2451-1.3047-2.8271-1.957-4.7471-1.957-1.9805,0-3.5703.6455-4.7695,1.9346Z"/>
        <path class="cls-4" d="M236.1641,126.2246c1.8296,1.5303,2.9697,3.5703,3.4199,6.1201h-5.9399c-.2407-1.1992-.7808-2.1602-1.6201-2.8799-.8403-.7197-1.9351-1.0801-3.2852-1.0801-1.0801,0-1.9199.2549-2.52.7646-.6001.5107-.8999,1.2002-.8999,2.0703,0,.6904.2397,1.2451.7202,1.665.4795.4209,1.0801.75,1.7998.9902.7202.2402,1.7549.5254,3.105.8545,1.8901.4209,3.4272.8633,4.6128,1.3281,1.1846.4648,2.2046,1.2002,3.0596,2.2051s1.2827,2.3623,1.2827,4.0723c0,2.1299-.8325,3.8555-2.4976,5.1748-1.665,1.3203-3.9077,1.9805-6.7275,1.9805-3.2397,0-5.835-.7275-7.7847-2.1826-1.9507-1.4551-3.1353-3.5332-3.5552-6.2324h6.0747c.1499,1.2305.6899,2.1973,1.6201,2.9023.9297.7051,2.1445,1.0576,3.645,1.0576,1.0801,0,1.9048-.2627,2.4751-.7881.5693-.5244.855-1.207.855-2.0469,0-.7207-.2476-1.3057-.7427-1.7559-.4946-.4492-1.1099-.7939-1.8447-1.0342-.7354-.2402-1.7773-.5244-3.1274-.8555-1.8608-.4199-3.3682-.8467-4.5225-1.2822-1.1553-.4346-2.1455-1.1318-2.9702-2.0928-.8252-.96-1.2373-2.2793-1.2373-3.96,0-2.1602.8247-3.915,2.4746-5.2646,1.6499-1.3506,3.9302-2.0254,6.8403-2.0254,3.0298,0,5.4595.7646,7.29,2.2949v.0003Z"/>
        <path class="cls-4" d="M262.6904,125.46c1.9351,1.0205,3.4575,2.4971,4.5684,4.4326,1.1094,1.9346,1.6641,4.207,1.6641,6.8174s-.5547,4.875-1.6641,6.7949c-1.1108,1.9199-2.6333,3.3975-4.5684,4.4326-1.9346,1.0352-4.1172,1.5527-6.5474,1.5527s-4.6123-.5176-6.5474-1.5527-3.458-2.5127-4.5674-4.4326c-1.1104-1.9199-1.665-4.1855-1.665-6.7949s.5547-4.8828,1.665-6.8174c1.1094-1.9355,2.6323-3.4121,4.5674-4.4326,1.9351-1.0195,4.1177-1.5303,6.5474-1.5303s4.6128.5107,6.5474,1.5303ZM251.6431,131.2871c-1.2305,1.2451-1.8447,3.0527-1.8447,5.4229s.6143,4.1777,1.8447,5.4219c1.23,1.2461,2.7295,1.8682,4.5,1.8682s3.2695-.6221,4.5-1.8682c1.23-1.2441,1.8452-3.0518,1.8452-5.4219s-.6152-4.1777-1.8452-5.4229c-1.2305-1.2441-2.73-1.8672-4.5-1.8672s-3.27.623-4.5,1.8672Z"/>
        <path class="cls-4" d="M297.2734,124.2451v24.9297h-6.3457v-5.04c-.6602,1.6807-1.748,2.9922-3.2627,3.9375s-3.2617,1.418-5.2422,1.418c-2.8799,0-5.1748-.9453-6.8848-2.835-1.71-1.8906-2.5654-4.5303-2.5654-7.9209v-14.4893h6.3008v13.7695c0,1.9805.5098,3.5176,1.5293,4.6123,1.0195,1.0957,2.4004,1.6426,4.1406,1.6426,1.8291,0,3.2842-.585,4.3643-1.7549s1.6201-2.8496,1.6201-5.04v-13.2295s6.3457,0,6.3457,0Z"/>
        <path class="cls-4" d="M313.0674,125.2568c1.5303-.9141,3.2402-1.3721,5.1299-1.3721v6.7949h-1.8447c-4.6504,0-6.9756,2.1602-6.9756,6.4805v12.0146h-6.3447v-24.9297h6.3447v4.7695c.9297-1.5898,2.1602-2.8418,3.6904-3.7578h0Z"/>
        <path class="cls-4" d="M340.9443,126.54c2.1445,1.7402,3.4883,4.1104,4.0273,7.1094h-6.7041c-.2705-1.3193-.8857-2.3623-1.8457-3.127-.96-.7656-2.1748-1.1475-3.6445-1.1475-1.6807,0-3.083.623-4.208,1.8672-1.125,1.2451-1.6875,3.0674-1.6875,5.4678s.5625,4.2227,1.6875,5.4678,2.5273,1.8672,4.208,1.8672c1.4697,0,2.6846-.3828,3.6445-1.1475.96-.7656,1.5752-1.8076,1.8457-3.1279h6.7041c-.5391,3.001-1.8828,5.3711-4.0273,7.1104-2.1445,1.7402-4.8223,2.6104-8.0322,2.6104-2.4297,0-4.5898-.5176-6.4795-1.5527-1.8906-1.0352-3.3604-2.5127-4.4102-4.4326-1.0508-1.9199-1.5752-4.1855-1.5752-6.7949s.5244-4.8828,1.5752-6.8174c1.0498-1.9355,2.5195-3.4121,4.4102-4.4326,1.8896-1.0195,4.0498-1.5303,6.4795-1.5303,3.21,0,5.8877.8701,8.0322,2.6104v-.0002Z"/>
        <path class="cls-4" d="M372.6914,137.9248h-18.2695c.0898,2.2207.6895,3.8555,1.7998,4.9053,1.1094,1.0498,2.4902,1.5752,4.1396,1.5752,1.4697,0,2.6924-.3604,3.668-1.0801.9746-.7207,1.5977-1.6953,1.8672-2.9258h6.7051c-.3301,1.7402-1.0352,3.3008-2.1152,4.6807-1.0791,1.3799-2.4678,2.46-4.1621,3.2393-1.6953.7812-3.5771,1.1709-5.6475,1.1709-2.4297,0-4.5898-.5176-6.4795-1.5527-1.8906-1.0352-3.3604-2.5127-4.4102-4.4326-1.0508-1.9199-1.5752-4.1855-1.5752-6.7949s.5244-4.8828,1.5752-6.8174c1.0498-1.9355,2.5195-3.4121,4.4102-4.4326,1.8896-1.0195,4.0498-1.5303,6.4795-1.5303,2.46,0,4.6123.5107,6.458,1.5303,1.8447,1.0205,3.2695,2.4229,4.2744,4.207,1.0049,1.7852,1.5078,3.8184,1.5078,6.0977,0,.6299-.0752,1.3506-.2256,2.1602v-.0002ZM364.9297,130.5c-1.1553-1.0498-2.5732-1.5752-4.2529-1.5752-1.71,0-3.1504.5254-4.3203,1.5752s-1.8154,2.5947-1.9346,4.6348h12.1045c.0908-2.04-.4424-3.585-1.5967-4.6348h0Z"/>
        <path class="cls-4" d="M405.293,125.46c1.9355,1.0205,3.457,2.4971,4.5674,4.4326,1.1104,1.9346,1.665,4.207,1.665,6.8174s-.5547,4.875-1.665,6.7949-2.6318,3.3975-4.5674,4.4326c-1.9346,1.0352-4.1172,1.5527-6.5469,1.5527s-4.6133-.5176-6.5479-1.5527-3.458-2.5127-4.5674-4.4326c-1.1104-1.9199-1.665-4.1855-1.665-6.7949s.5547-4.8828,1.665-6.8174c1.1094-1.9355,2.6328-3.4121,4.5674-4.4326,1.9346-1.0195,4.1172-1.5303,6.5479-1.5303s4.6123.5107,6.5469,1.5303ZM394.2461,131.2871c-1.2305,1.2451-1.8457,3.0527-1.8457,5.4229s.6152,4.1777,1.8457,5.4219c1.2295,1.2461,2.7295,1.8682,4.5,1.8682,1.7695,0,3.2695-.6221,4.5-1.8682,1.2295-1.2441,1.8447-3.0518,1.8447-5.4219s-.6152-4.1777-1.8447-5.4229c-1.2305-1.2441-2.7305-1.8672-4.5-1.8672-1.7705,0-3.2705.623-4.5,1.8672Z"/>
        <path class="cls-4" d="M437.7607,126.7197c1.71,1.8896,2.5645,4.5449,2.5645,7.9648v14.4902h-6.2998v-13.7695c0-1.9805-.5107-3.5176-1.5303-4.6133-1.0195-1.0947-2.415-1.6426-4.1846-1.6426-1.7998,0-3.2402.585-4.3203,1.7559-1.0801,1.1699-1.6201,2.8496-1.6201,5.0391v13.2305h-6.3447v-24.9297h6.3447v4.9951c.6602-1.6807,1.748-2.9932,3.2627-3.9375,1.5146-.9453,3.2627-1.418,5.2432-1.418,2.8799,0,5.1748.9453,6.8848,2.835h0Z"/>
        <path class="cls-4" d="M480.0596,119.9473c2.5498,1.9053,4.1855,4.4775,4.9053,7.7178h-6.6602c-.6299-1.4404-1.6279-2.5879-2.9922-3.4424-1.3652-.8555-2.9775-1.2832-4.8379-1.2832-1.8301,0-3.4502.4209-4.8594,1.2607-1.4111.8398-2.5059,2.04-3.2852,3.5996-.7803,1.5605-1.1699,3.3906-1.1699,5.4902,0,3.3301.8916,5.9248,2.6777,7.7852,1.7842,1.8604,4.2217,2.79,7.3125,2.79,2.2793,0,4.2363-.6758,5.8721-2.0254,1.6348-1.3496,2.6924-3.2246,3.1729-5.625h-10.7549v-4.5449h16.0645v6.1201c-.4502,2.0996-1.3271,4.0352-2.6328,5.8047-1.3047,1.7705-3.0146,3.1885-5.1299,4.2529-2.1143,1.0645-4.5381,1.5967-7.2676,1.5967-3.1201,0-5.8721-.6816-8.2568-2.0469-2.3857-1.3652-4.2305-3.2695-5.5352-5.7148s-1.958-5.2432-1.958-8.3926.6533-5.9473,1.958-8.3926,3.1426-4.3574,5.5127-5.7373c2.3691-1.3799,5.1143-2.0703,8.2344-2.0703,3.8701,0,7.0801.9531,9.6299,2.8574h0Z"/>
        <path class="cls-4" d="M508.3418,125.46c1.9355,1.0205,3.457,2.4971,4.5674,4.4326,1.1104,1.9346,1.665,4.207,1.665,6.8174s-.5547,4.875-1.665,6.7949-2.6318,3.3975-4.5674,4.4326c-1.9346,1.0352-4.1172,1.5527-6.5469,1.5527s-4.6133-.5176-6.5479-1.5527-3.458-2.5127-4.5674-4.4326c-1.1104-1.9199-1.665-4.1855-1.665-6.7949s.5547-4.8828,1.665-6.8174c1.1094-1.9355,2.6328-3.4121,4.5674-4.4326,1.9346-1.0195,4.1172-1.5303,6.5479-1.5303s4.6123.5107,6.5469,1.5303h0ZM497.2949,131.2871c-1.2305,1.2451-1.8457,3.0527-1.8457,5.4229s.6152,4.1777,1.8457,5.4219c1.2295,1.2461,2.7295,1.8682,4.5,1.8682,1.7695,0,3.2695-.6221,4.5-1.8682,1.2295-1.2441,1.8447-3.0518,1.8447-5.4219s-.6152-4.1777-1.8447-5.4229c-1.2305-1.2441-2.7305-1.8672-4.5-1.8672-1.7705,0-3.2705.623-4.5,1.8672Z"/>
        <path class="cls-4" d="M537.1416,125.46c1.9355,1.0205,3.457,2.4971,4.5674,4.4326,1.1104,1.9346,1.665,4.207,1.665,6.8174s-.5547,4.875-1.665,6.7949-2.6318,3.3975-4.5674,4.4326c-1.9346,1.0352-4.1172,1.5527-6.5469,1.5527s-4.6133-.5176-6.5479-1.5527-3.458-2.5127-4.5674-4.4326c-1.1104-1.9199-1.665-4.1855-1.665-6.7949s.5547-4.8828,1.665-6.8174c1.1094-1.9355,2.6328-3.4121,4.5674-4.4326,1.9346-1.0195,4.1172-1.5303,6.5479-1.5303s4.6123.5107,6.5469,1.5303ZM526.0947,131.2871c-1.2305,1.2451-1.8457,3.0527-1.8457,5.4229s.6152,4.1777,1.8457,5.4219c1.2295,1.2461,2.7295,1.8682,4.5,1.8682,1.7695,0,3.2695-.6221,4.5-1.8682,1.2295-1.2441,1.8447-3.0518,1.8447-5.4219s-.6152-4.1777-1.8447-5.4229c-1.2305-1.2441-2.7305-1.8672-4.5-1.8672-1.7705,0-3.2705.623-4.5,1.8672Z"/>
        <path class="cls-4" d="M563.0391,125.415c1.5.9902,2.5654,2.3252,3.1953,4.0049v-5.1748h6.2998v25.0195c0,2.3096-.458,4.3877-1.3721,6.2324-.916,1.8457-2.2803,3.292-4.0957,4.3428-1.8154,1.0498-4.0127,1.5752-6.5918,1.5752-3.6006,0-6.5107-.8555-8.7305-2.5654-2.2207-1.71-3.5703-4.0352-4.0498-6.9746h6.2549c.3604,1.2598,1.0576,2.2422,2.0928,2.9473,1.0342.7041,2.3623,1.0576,3.9824,1.0576,1.8594,0,3.3594-.5479,4.5-1.6426,1.1396-1.0957,1.71-2.7529,1.71-4.9727v-5.3096c-.6299,1.6807-1.6953,3.0225-3.1953,4.0273s-3.3008,1.5078-5.4004,1.5078-3.9902-.5098-5.6699-1.5303c-1.6797-1.0195-2.9922-2.498-3.9375-4.4326-.9443-1.9346-1.417-4.208-1.417-6.8174s.4727-4.8828,1.417-6.8174c.9453-1.9355,2.2578-3.4121,3.9375-4.4326,1.6797-1.0195,3.5703-1.5303,5.6699-1.5303s3.9004.4951,5.4004,1.4854h0ZM554.8496,131.3994c-1.2012,1.291-1.8008,3.0605-1.8008,5.3105s.5996,4.0127,1.8008,5.2871c1.1992,1.2754,2.7891,1.9131,4.7695,1.9131,1.9199,0,3.502-.6533,4.7471-1.958s1.8682-3.0518,1.8682-5.2422c0-2.2197-.623-3.9824-1.8682-5.2881-1.2451-1.3047-2.8271-1.957-4.7471-1.957-1.9805,0-3.5703.6455-4.7695,1.9346Z"/>
        <path class="cls-4" d="M584.6387,115.875v33.2998h-6.3447v-33.2998h6.3447Z"/>
        <path class="cls-4" d="M613.6182,137.9248h-18.2695c.0898,2.2207.6895,3.8555,1.7998,4.9053,1.1094,1.0498,2.4902,1.5752,4.1396,1.5752,1.4697,0,2.6924-.3604,3.668-1.0801.9746-.7207,1.5977-1.6953,1.8672-2.9258h6.7051c-.3301,1.7402-1.0352,3.3008-2.1152,4.6807-1.0791,1.3799-2.4678,2.46-4.1621,3.2393-1.6953.7812-3.5771,1.1709-5.6475,1.1709-2.4297,0-4.5898-.5176-6.4795-1.5527-1.8906-1.0352-3.3604-2.5127-4.4102-4.4326-1.0508-1.9199-1.5752-4.1855-1.5752-6.7949s.5244-4.8828,1.5752-6.8174c1.0498-1.9355,2.5195-3.4121,4.4102-4.4326,1.8896-1.0195,4.0498-1.5303,6.4795-1.5303,2.46,0,4.6123.5107,6.458,1.5303,1.8447,1.0205,3.2695,2.4229,4.2744,4.207,1.0049,1.7852,1.5078,3.8184,1.5078,6.0977,0,.6299-.0752,1.3506-.2256,2.1602v-.0002ZM605.8564,130.5c-1.1553-1.0498-2.5732-1.5752-4.2529-1.5752-1.71,0-3.1504.5254-4.3203,1.5752s-1.8154,2.5947-1.9346,4.6348h12.1045c.0908-2.04-.4424-3.585-1.5967-4.6348Z"/>
      </g>
      <g>
        <path class="cls-3" d="M173.2877,91.9496l-59.2161-.0028c-2.6149,0-4.7344,2.1192-4.7344,4.7341v18.9169c0,2.6143,2.1195,4.7341,4.7341,4.7341h33.3469c-3.6515,9.4764-10.4669,17.4127-19.1622,22.4553l14.2191,24.6145c22.8092-13.1915,36.2941-36.3372,36.2941-62.2472,0-3.6892-.2719-6.3265-.8158-9.2961-.4134-2.2562-2.3722-3.9087-4.6658-3.9087h0Z"/>
        <path class="cls-2" d="M106.181,148.7547c-16.3193,0-30.5659-8.9164-38.2174-22.1108l-24.6136,14.187c12.5257,21.709,35.9904,36.3279,62.8311,36.3279,13.1671,0,25.5913-3.5452,36.2941-9.7234v-.0337l-14.2191-24.6148c-6.504,3.7723-14.0305,5.9678-22.075,5.9678h-.0001Z"/>
        <path class="cls-7" d="M142.4751,167.4354v-.0337l-14.2191-24.6148c-6.504,3.772-14.0299,5.9678-22.075,5.9678v28.4041c13.1671,0,25.5919-3.5452,36.2941-9.7234Z"/>
        <path class="cls-5" d="M61.9969,104.5706c0-8.044,2.1952-15.5696,5.9667-22.0733l-24.6136-14.187c-6.2122,10.6691-9.7572,23.0595-9.7572,36.2604s3.5449,25.5913,9.7572,36.2604l24.6136-14.187c-3.7715-6.5037-5.9667-14.0294-5.9667-22.0733h0v-.0002Z"/>
        <path class="cls-6" d="M106.181,60.3865c10.6418,0,20.4169,3.7814,28.052,10.0713,1.8836,1.5516,4.6213,1.4396,6.3466-.2858l13.4033-13.4033c1.9576-1.9576,1.8181-5.162-.2731-6.9761-12.7923-11.0978-29.4365-17.8102-47.5288-17.8102-26.8406,0-50.3053,14.6189-62.8311,36.3279l24.6136,14.187c7.6515-13.1943,21.8981-22.1108,38.2174-22.1108h0Z"/>
        <path class="cls-1" d="M134.233,70.4578c1.8836,1.5516,4.6215,1.4396,6.3466-.2858l13.4033-13.4033c1.9573-1.9576,1.8178-5.162-.2731-6.9761-12.7923-11.0981-29.4365-17.8102-47.5288-17.8102v28.4041c10.6415,0,20.4169,3.7814,28.052,10.0713h0Z"/>
      </g>
    </g>
  </g>
</svg>